<?xml version="1.0" encoding="utf-8"?><svg viewBox="0 0 14 14" xmlns="http://www.w3.org/2000/svg" xmlns:xlink="http://www.w3.org/1999/xlink"><style>:root>svg{display:none}:root>svg:target{display:block}</style><svg viewBox="0 0 14 14" id="arrow-right" xmlns="http://www.w3.org/2000/svg"><path d="m5.727 1.79.671-.595a.772.772 0 0 1 1.016 0l5.844 5.196a.588.588 0 0 1 0 .902l-5.844 5.191a.763.763 0 0 1-1.016 0l-.671-.593c-.286-.254-.278-.664.011-.918l3.625-3.067H.72c-.4 0-.72-.285-.72-.636v-.86c0-.351.32-.637.719-.637h8.644L5.738 2.707a.592.592 0 0 1-.011-.918zm0 0"/></svg></svg>